# xmcd
#
# Track frame offsets: 
#        150
#        17593
#        34695
#        52093
#
# Disc length: 920 seconds
#
# Revision: 1
# Processed by: cddbd v1.5.2PL0 Copyright (c) Steve Scherf et al.
# Submitted via: ExactAudioCopyFreeDBPlugin 1.0
#
DISCID=2a039604
DTITLE=高橋洋樹 - 魔訶不思議アドベンチャー!
DYEAR=1998
DGENRE=JPop
TTITLE0=魔訶不思議アドベンチャー!
TTITLE1=橋本潮 - ロマンティックあげるよ
TTITLE2=魔訶不思議アドベンチャー!(オリジナル·カラオケ)
TTITLE3=橋本潮 - ロマンティックあげるよ(オリジナル·カラオケ)
EXTD=YEAR: 1998
EXTT0=
EXTT1=
EXTT2=
EXTT3=
PLAYORDER=
